<svg xmlns="http://www.w3.org/2000/svg" xmlns:xlink="http://www.w3.org/1999/xlink" version="1.1" id="Layer_1" x="0px" y="0px" viewBox="0 0 208.6 101" style="enable-background:new 0 0 208.6 101;" xml:space="preserve">
<style type="text/css">
	.st0{fill:#3EF7EC;}
</style>
<g>
	<path class="st0" d="M118.3,34.1l-1.9-0.7l0,0l-30.1-11c-4.2-1.5-8.6-1.2-12.4,0.5c-3.8,1.7-6.8,4.9-8.4,9.1L53.8,64l-32-11.7   C13.4,49.2,4.1,53.6,1,62c-3.1,8.4,1.3,17.7,9.7,20.8L57.9,100c5,1.8,10.2,1,14.3-1.6c2.9-1.8,5.2-4.6,6.4-8.1l11.7-32l32,11.7   c4.9,1.8,10.2,1,14.3-1.6c2.9-1.8,5.2-4.6,6.4-8.1l6.5-17.9l0,0l3.1-8.4h-34.3V34.1z"/>
	<path class="st0" d="M198,9.6L171.7,0v34h-1.2l16.4,6c4.9,1.8,10.2,1,14.3-1.6c2.9-1.8,5.2-4.6,6.4-8.1   C210.7,22,206.4,12.7,198,9.6z"/>
</g>
</svg>