<svg xmlns="http://www.w3.org/2000/svg" id="Layer_1" data-name="Layer 1" viewBox="0 0 1080 1080"><defs></defs><title>Angel Shapes</title><path d="M859,172.23C749.29,85.71,612.33,47.35,473.51,63.15c-138.89,16.19-263,85.7-349.76,195.39-47.67,60.27-37.31,147.82,23,195.58s148,37.74,195.59-22.94A243,243,0,0,1,506,339.73c65.29-8.82,129,10.26,180.33,51a245,245,0,0,1,40.39,344.05c-47.69,60.28-37.33,147.82,23,195.58a139.3,139.3,0,0,0,195.57-23C1031.91,797.77,1070.66,660.8,1054.36,522,1038.06,383,968.66,258.75,859,172.23Z"/></svg>