<svg xmlns="http://www.w3.org/2000/svg" className="svg-pink-zigzag" id="Layer_1" data-name="Layer 1" viewBox="0 0 1080 1080"><defs></defs><title>Angel Shapes</title><path d="M380.5,561.58h.11l33.21,5.59,164.4,27.64L545,792.58a95.26,95.26,0,0,0,78.21,109.77l291.74,49a95.3,95.3,0,0,0,109.77-78.2c8.72-51.95-26.29-101.3-78.2-109.77L748.73,730.15,774,579.7l8-47.27a95.3,95.3,0,0,0-78.18-109.76L507.1,389.58l-1.05-.19,33.23-197.7A95.2,95.2,0,0,0,461.07,81.92H461l-291.58-49a95.29,95.29,0,1,0-31.61,188L335.5,254.08l-14.7,87.54L302.3,451.81a95.29,95.29,0,0,0,78.2,109.77Z"/></svg>